<svg width="20" height="20" viewBox="0 0 12 12" fill="none" xmlns="http://www.w3.org/2000/svg">
<path d="M4.92862 2.57146H7.07148C7.07148 2.2873 6.9586 2.01478 6.75767 1.81385C6.55674 1.61292 6.28421 1.50003 6.00005 1.50003C5.71589 1.50003 5.44337 1.61292 5.24244 1.81385C5.04151 2.01478 4.92862 2.2873 4.92862 2.57146ZM4.28577 2.57146C4.28577 2.11681 4.46638 1.68077 4.78787 1.35928C5.10936 1.03779 5.5454 0.857178 6.00005 0.857178C6.45471 0.857178 6.89074 1.03779 7.21223 1.35928C7.53373 1.68077 7.71434 2.11681 7.71434 2.57146H10.3929C10.4782 2.57146 10.5599 2.60533 10.6202 2.66561C10.6805 2.72589 10.7143 2.80764 10.7143 2.89289C10.7143 2.97814 10.6805 3.0599 10.6202 3.12018C10.5599 3.18046 10.4782 3.21432 10.3929 3.21432H9.83148L9.30991 9.47275C9.27196 9.92803 9.06431 10.3524 8.72812 10.6618C8.39194 10.9711 7.95177 11.1429 7.49491 11.1429H4.5052C4.04833 11.1429 3.60817 10.9711 3.27198 10.6618C2.9358 10.3524 2.72814 9.92803 2.6902 9.47275L2.16862 3.21432H1.6072C1.52195 3.21432 1.44019 3.18046 1.37991 3.12018C1.31963 3.0599 1.28577 2.97814 1.28577 2.89289C1.28577 2.80764 1.31963 2.72589 1.37991 2.66561C1.44019 2.60533 1.52195 2.57146 1.6072 2.57146H4.28577ZM5.3572 5.03575C5.3572 4.9505 5.32333 4.86874 5.26305 4.80847C5.20277 4.74819 5.12101 4.71432 5.03577 4.71432C4.95052 4.71432 4.86876 4.74819 4.80848 4.80847C4.7482 4.86874 4.71434 4.9505 4.71434 5.03575V8.67861C4.71434 8.76385 4.7482 8.84561 4.80848 8.90589C4.86876 8.96617 4.95052 9.00004 5.03577 9.00004C5.12101 9.00004 5.20277 8.96617 5.26305 8.90589C5.32333 8.84561 5.3572 8.76385 5.3572 8.67861V5.03575ZM6.96434 4.71432C6.87909 4.71432 6.79733 4.74819 6.73705 4.80847C6.67677 4.86874 6.64291 4.9505 6.64291 5.03575V8.67861C6.64291 8.76385 6.67677 8.84561 6.73705 8.90589C6.79733 8.96617 6.87909 9.00004 6.96434 9.00004C7.04959 9.00004 7.13134 8.96617 7.19162 8.90589C7.2519 8.84561 7.28577 8.76385 7.28577 8.67861V5.03575C7.28577 4.9505 7.2519 4.86874 7.19162 4.80847C7.13134 4.74819 7.04959 4.71432 6.96434 4.71432Z" fill="#A1A1AA"/>
</svg>
